<svg width="60" height="60" viewBox="0 0 60 60" fill="none" xmlns="http://www.w3.org/2000/svg">
<path d="M51.2268 52.4609C50.012 52.4609 49.0252 53.4477 49.0252 54.6625C49.0252 55.8773 50.012 56.8641 51.2268 56.8641C52.4416 56.8641 53.4284 55.8773 53.4284 54.6625C53.4284 53.4477 52.4416 52.4609 51.2268 52.4609ZM51.2268 56.4778C50.2261 56.4778 49.4162 55.6679 49.4162 54.6672C49.4162 53.6664 50.2261 52.8566 51.2268 52.8566C52.2275 52.8566 53.0374 53.6664 53.0374 54.6672C53.0374 55.6632 52.2275 56.4778 51.2268 56.4778Z" fill="white"/>
<path d="M52.246 55.674L52.2227 55.1899C52.2088 54.8176 52.0645 54.7524 51.9202 54.6872C52.0831 54.5848 52.2693 54.4406 52.2693 54.0449C52.2693 53.4771 51.855 53.3281 51.4454 53.3281H50.2818V55.9998H50.6216V54.8548H51.4454C51.8504 54.8548 51.8923 55.1108 51.8923 55.3296C51.8923 55.432 51.9016 55.8369 51.9528 55.9998H52.367V55.9393C52.2646 55.8788 52.2506 55.8229 52.246 55.674ZM51.4128 54.5476H50.6262V53.64H51.4733C51.6409 53.64 51.9248 53.6726 51.9248 54.0868C51.9248 54.4778 51.6595 54.5476 51.4128 54.5476Z" fill="white"/>
<path d="M29.9558 57.9335C24.0306 57.8404 18.273 56.0391 13.3113 52.7298C12.548 52.2504 5.04494 47.2934 1.85662 36.6578C1.6332 35.955 -0.805753 27.6886 4.81687 21.8659C5.3149 21.2934 7.76782 18.6775 11.7707 17.5744C12.0779 15.9174 12.7435 13.4133 14.1398 10.9045C16.3879 6.87375 20.9587 2.07497 29.9744 2.07031H30.0116L30.0256 2.08428V2.07031C39.0414 2.07497 43.6121 6.8784 45.8555 10.8999C47.2565 13.4087 47.9175 15.9128 48.2247 17.5698C52.2322 18.6729 54.6851 21.2934 55.1831 21.8612C60.8058 27.684 58.3668 35.9504 58.1434 36.6578C54.9551 47.2934 47.452 52.2504 46.6933 52.7298C41.727 56.0438 35.974 57.8404 30.0442 57.9335H30.007H29.9558Z" fill="white"/>
<path d="M53.3446 23.5482C53.3446 23.5482 50.6543 20.2528 45.9998 19.6617C45.9998 19.6617 45.1388 4.57181 30.021 4.5625H30.007H29.9837H29.9698C14.8613 4.57181 14.0002 19.6617 14.0002 19.6617C9.35037 20.2528 6.66008 23.5482 6.66008 23.5482C1.81475 28.5005 4.23509 35.9291 4.23509 35.9291C7.28843 46.1318 14.6611 50.6466 14.6611 50.6466C20.591 54.6122 26.3486 55.3942 29.993 55.4547C29.9977 55.4547 29.9977 55.4547 29.9977 55.4547C29.9977 55.4547 30.0023 55.4547 30.007 55.4547C33.6515 55.3989 39.4137 54.6122 45.3436 50.6466C45.3436 50.6466 52.7163 46.1318 55.765 35.9291C55.765 35.9245 58.1853 28.5005 53.3446 23.5482Z" fill="#DC2F34"/>
<path d="M51.4273 24.6949C51.4273 24.6949 49.0954 22.0791 43.9149 21.5485C43.9149 21.5485 43.631 6.57497 30.0026 6.57031H29.998H29.9933C16.3603 6.57497 16.0857 21.5485 16.0857 21.5485C10.9006 22.0791 8.56871 24.6949 8.56871 24.6949C4.16556 29.2051 6.48815 35.619 6.48815 35.619C9.30412 45.049 16.0811 49.0472 16.0811 49.0472C21.5454 52.701 26.7259 53.4364 29.9933 53.441H29.998H30.0026C33.2747 53.4364 38.4552 52.701 43.9196 49.0472C43.9196 49.0472 50.6965 45.0443 53.5171 35.619C53.5171 35.619 55.8351 29.2004 51.4273 24.6949Z" fill="white"/>
<path d="M45.8186 26.0899C44.2035 26.0107 39.5304 26.0899 39.5304 26.0899C39.5304 26.0899 35.9371 30.8002 30.0818 30.8514C24.2637 30.9026 20.6332 26.0899 20.6332 26.0899C20.6332 26.0899 15.96 26.0107 14.3449 26.0899C1.78246 26.6996 10.6772 51.643 30.0818 51.401C49.7935 51.1496 58.2368 26.6949 45.8186 26.0899Z" fill="#DC2F34"/>
<path d="M19.8931 32.2969C17.1702 32.2969 14.964 34.047 14.964 36.2113C14.964 37.9567 16.4209 39.4462 18.4177 39.9395V42.2854H15.1967V43.5328H24.6174V42.2854H21.3593V39.9442C23.37 39.4508 24.8269 37.966 24.8269 36.2113C24.8222 34.0516 22.616 32.2969 19.8931 32.2969ZM19.8699 38.9388C18.6597 38.9388 17.6776 37.6682 17.6776 36.1089C17.6776 34.545 18.6597 33.2743 19.8699 33.2743C21.08 33.2743 22.0621 34.545 22.0621 36.1089C22.0575 37.6682 21.08 38.9388 19.8699 38.9388Z" fill="white"/>
<path d="M31.399 38.1707L31.4037 38.1753H35.0528V36.9605H33.3027V33.721H35.0528V32.4968L30.5752 32.4922V37.3654L30.5891 37.3794C30.5985 37.8169 30.9568 38.1707 31.399 38.1707Z" fill="white"/>
<path d="M25.5065 40.3503H28.7367V42.901C28.7321 42.9382 28.7274 42.9847 28.7274 43.022C28.7274 43.6503 29.3837 44.1623 30.1889 44.1623C30.9941 44.1623 31.6504 43.655 31.6551 43.0313H31.6597V40.3456H35.1646V39.0703H25.5065V40.3503Z" fill="white"/>
<path d="M25.6274 37.3515V37.3561V37.3654C25.6321 37.8123 25.9998 38.1753 26.4466 38.1753C26.4466 38.1753 26.4513 38.1753 26.4559 38.1753L26.4606 38.18H29.8258V36.9512H28.3689V33.7256H29.8258V32.4922H25.6181L25.6228 37.3375C25.6228 37.3468 25.6274 37.3515 25.6274 37.3515Z" fill="white"/>
<path d="M36.0582 33.7565H38.7205V40.4357C38.7205 40.4357 38.7205 41.7157 36.775 42.0834H36.7796C36.2955 42.1579 36.0396 42.4186 36.0396 42.8235C36.0396 43.2331 36.2909 43.5543 36.7051 43.5543L36.7098 43.5589C36.7098 43.5589 41.3317 43.7497 41.3317 40.715V32.4766H36.0582V33.7565Z" fill="white"/>
<path d="M42.5094 42.8082C42.5094 43.4319 43.1145 43.9393 43.9197 43.9393C44.7249 43.9393 45.2695 43.4366 45.2695 42.8082V32.2891H42.5094V42.8082Z" fill="white"/>
<path d="M39.3721 19.8811C41.5038 15.6921 36.5002 7.26746 27.787 9.98569C27.787 9.98569 25.5482 8.4404 23.7144 10.116C23.7144 10.116 22.197 11.4007 23.1 13.5231C22.4763 14.1794 21.9503 14.9241 21.5314 15.7386C21.5035 15.7898 21.4802 15.841 21.4523 15.8969C21.4244 15.9574 21.3918 16.0179 21.3638 16.0784C21.3033 16.2041 21.2475 16.3298 21.1963 16.4554C21.1916 16.4601 21.1916 16.4694 21.187 16.474C21.1265 16.623 21.0706 16.7766 21.0148 16.9302C21.0148 16.9348 21.0148 16.9348 21.0101 16.9395C20.7076 17.8052 20.5447 18.6896 20.5074 19.5507C20.5028 19.6763 20.5028 19.802 20.4981 19.923C20.4981 19.951 20.4935 19.9835 20.4935 20.0115C20.5167 29.474 34.0706 32.0433 38.0642 24.3588C38.7623 23.8328 41.1501 21.7755 39.3721 19.8811ZM36.9797 22.4039C35.9603 26.2299 31.8551 26.9885 30.0072 26.9885C25.8135 26.9885 22.3832 24.1912 22.1179 20.0673L22.1132 20.0766C22.1132 20.044 22.1132 20.0115 22.1179 19.9789C22.1086 19.4436 22.1737 18.927 22.2901 18.4429C22.5973 17.0047 23.3094 15.7154 24.2962 14.696C24.3893 14.71 24.5894 14.7286 24.5894 14.7286C26.6979 14.9148 27.7684 14.1142 27.7684 14.1142C31.0964 16.0738 31.492 13.7279 31.492 13.7279C29.8583 13.8955 30.5704 12.9692 30.5704 12.9692C30.9707 12.406 31.9482 12.6015 31.9482 12.6015C36.9983 13.43 35.3925 16.8092 35.3925 16.8092C36.9285 17.6656 36.221 18.387 36.221 18.387C35.197 18.1078 35.0713 18.4941 35.2063 18.9502C35.3413 19.411 35.7043 19.7415 36.0581 20.0673C36.3094 20.3 36.4723 20.6259 36.5747 20.8819C36.6213 20.9796 36.6538 21.0913 36.6818 21.203C36.6911 21.2402 36.7004 21.2775 36.705 21.3147C36.7376 21.5056 36.7562 21.6824 36.7702 21.8034C36.8214 21.8546 36.8959 21.8034 36.961 21.7243C37.2403 21.0634 38.3481 20.3093 38.3481 21.4311C38.3341 22.7716 36.9797 22.4039 36.9797 22.4039Z" fill="#DC2F34"/>
<path d="M33.9543 21.9785C33.9077 21.8854 33.7821 21.8621 33.6424 21.9366C33.4516 22.039 33.2747 22.174 33.0839 22.2811C32.7813 22.4533 32.0227 22.8442 31.627 22.8442C32.1902 21.9087 32.004 21.0523 31.399 20.9406C30.9289 20.8521 30.6729 21.0988 30.1469 21.6062C29.6768 22.0576 29.1136 22.4067 28.5458 22.3741C27.8895 22.3369 27.3635 21.9273 26.8841 21.5131C26.3488 21.0523 25.6553 20.4332 24.9152 20.3913C24.7011 20.3774 24.5475 20.5729 24.9804 20.7916C26.1347 21.3688 26.8236 22.5231 27.9407 23.1468C29.2625 23.8869 30.7846 23.8962 32.1902 23.4028C32.9024 23.1561 34.1544 22.3881 33.9543 21.9785ZM30.5937 22.8442C30.2214 22.942 29.7233 22.8442 29.7233 22.8442C29.7233 22.8442 30.6915 22.7139 31.143 21.8156C30.994 22.5464 30.5937 22.8442 30.5937 22.8442Z" fill="#DC2F34"/>
<path d="M25.5016 15.8139C25.8461 15.7348 26.1952 15.7395 26.4931 15.9303C26.7909 16.1211 26.9492 16.2468 27.033 16.0327C27.0981 15.8698 27.019 15.5533 26.884 15.3997C26.5536 15.0134 25.7437 14.4548 24.3566 15.8279C24.3566 15.8279 23.3932 16.8519 24.5102 16.2328C24.7942 16.0746 25.1432 15.8977 25.5016 15.8139Z" fill="#DC2F34"/>
<path d="M33.2701 14.2028L32.0273 14.7474C31.1942 15.1616 31.6875 15.7295 31.6875 15.7295C32.3857 16.4277 32.9536 15.8598 32.9536 15.8598C33.8751 14.8219 34.8852 15.3106 34.8852 15.3106C34.5919 13.365 33.2701 14.2028 33.2701 14.2028Z" fill="#DC2F34"/>
<path d="M31.0778 17.5235C30.3657 17.5282 29.7932 18.1054 29.7978 18.8175C29.7978 19.5343 30.3843 20.1068 31.0964 20.1021C31.8132 20.0928 32.3857 19.5157 32.3764 18.8035C32.3718 18.0914 31.7899 17.5142 31.0778 17.5235Z" fill="#DC2F34"/>
<path d="M28.3642 18.6517C28.4293 18.5353 28.4572 18.4003 28.4479 18.2654C28.4107 17.893 28.2525 17.1948 27.5822 17.125C27.5822 17.125 28.3642 18.27 27.2843 18.4562C27.2843 18.4562 26.1672 18.7215 27.4426 19.4755C27.4426 19.4755 28.6248 20.1318 28.6155 19.415C28.6155 19.415 27.8894 19.5081 28.3642 18.6517Z" fill="#DC2F34"/>
<path d="M26.7491 18.0995C26.7398 18.0064 26.7072 17.9133 26.6746 17.8249C26.6234 17.6899 26.5769 17.5549 26.5024 17.4293C26.4046 17.2664 26.2697 17.1174 26.1161 17.0057C25.8973 16.8521 25.6413 16.773 25.376 16.759C25.2596 16.7544 25.1386 16.7637 25.0223 16.7776C24.8873 16.7963 24.7476 16.8242 24.608 16.8614C24.4963 16.8893 24.3893 16.9266 24.2915 16.9685C24.0495 17.0755 24.2962 17.1267 24.4405 17.1407C24.5661 17.1547 24.6918 17.1547 24.8221 17.1547C25.0781 17.15 25.7437 17.1314 26.1254 17.6015C26.1114 17.5922 26.1021 17.5829 26.0881 17.5782C25.5436 17.2338 24.9897 17.3781 24.608 17.5596C24.3567 17.6806 24.1612 17.8156 24.1891 17.918C24.2263 18.0437 24.5615 17.9273 24.7058 17.8714C24.9338 17.783 25.2038 17.7784 25.4458 17.8156C25.8647 17.8808 26.2324 18.1321 26.642 18.2205C26.6746 18.2298 26.7165 18.2252 26.7351 18.2019C26.7537 18.174 26.7491 18.1321 26.7491 18.0995Z" fill="#DC2F34"/>
</svg>
